# xmcd
#
# Track frame offsets:
#	150
#	15457
#	42232
#	64372
#	81690
#	102465
#	123910
#	149557
#	170167
#	191527
#	209637
#
# Disc length: 3015 seconds
#
# Revision: 0
# Processed by: cddbd v1.5.1PL2 Copyright (c) Steve Scherf et al.
# Submitted via: audiograbber 1.83.01
#
DISCID=ac0bc50b
DTITLE=ливакгс яайимтфгс - етси л' аяесеи 
DYEAR=1992
DGENRE=екк поп
TTITLE0=ливакгс яайимтфгс - ти соу кеипеи
TTITLE1=ливакгс яайимтфгс - окойкгяо то жеццаяи
TTITLE2=ливакгс яайимтфгс - давтукиди
TTITLE3=ливакгс яайимтфгс - дыста
TTITLE4=ливакгс яайимтфгс - ови ьувоука лоу
TTITLE5=ливакгс яайимтфгс and IAN GILLAN - GET AWAY
TTITLE6=ливакгс яайимтфгс and IAN GILLAN - MY HEART REMAINS THE SAME
TTITLE7=ливакгс яайимтфгс  - етси л╢ аяесеи
TTITLE8=ливакгс яайимтфгс and IAN GILLAN - I THINK I KNOW
TTITLE9=ливакгс яайимтфгс  - дем лпояеи
TTITLE10=ливакгс яайимтфгс  - паппоукгс
EXTD=
EXTT0=
EXTT1=
EXTT2=
EXTT3=
EXTT4=
EXTT5=
EXTT6=
EXTT7=
EXTT8=
EXTT9=
EXTT10=
PLAYORDER=
